HIERARCHY
ROOT ui
{
	 OFFSET 0 0 0
	 CHANNELS 3 XPosition YPosition Z Position
	 EndSite
	 {
	 OFFSET 0 -1 0
	 }
}
ROOT li
{
	 OFFSET 0 0 0
	 CHANNELS 3 XPosition YPosition Z Position
	 EndSite
	 {
	 OFFSET 0 -1 0
	 }
}
ROOT ul
{
	 OFFSET 0 0 0
	 CHANNELS 3 XPosition YPosition Z Position
	 EndSite
	 {
	 OFFSET 0 -1 0
	 }
}
ROOT ll
{
	 OFFSET 0 0 0
	 CHANNELS 3 XPosition YPosition Z Position
	 EndSite
	 {
	 OFFSET 0 -1 0
	 }
}
ROOT tt
{
	 OFFSET 0 0 0
	 CHANNELS 3 XPosition YPosition Z Position
	 EndSite
	 {
	 OFFSET 0 -1 0
	 }
}
ROOT tb
{
	 OFFSET 0 0 0
	 CHANNELS 3 XPosition YPosition Z Position
	 EndSite
	 {
	 OFFSET 0 -1 0
	 }
}
ROOT td
{
	 OFFSET 0 0 0
	 CHANNELS 3 XPosition YPosition Z Position
	 EndSite
	 {
	 OFFSET 0 -1 0
	 }
}
ROOT v
{
	 OFFSET 0 0 0
	 CHANNELS 3 XPosition YPosition Z Position
	 EndSite
	 {
	 OFFSET 0 -1 0
	 }
}
ROOT bn
{
	 OFFSET 0 0 0
	 CHANNELS 3 XPosition YPosition Z Position
	 EndSite
	 {
	 OFFSET 0 -1 0
	 }
}
MOTION
Frames: 19
Frame Time: 0.002
-7.952709794044495E-4	-6.827600002288818E-4	0		0.48910018920898435	-2.502325927734375	0		-1.1915843505859376	0.022087818145751954	0		-0.6742596435546875	-2.683223388671875	0		1.2678192138671875	-0.8774183349609375	0		2.843406982421875	-0.11263888549804688	0		4.49294873046875	0.2043651885986328	0		5.5879248046875	0.2614373474121094	0		-0.23605650329589845	5.95210888671875	0		
-9.338740110397339E-4	-7.933809757232666E-4	0		0.4889522705078125	-2.502438232421875	0		-1.158821044921875	0.017240787506103517	0		-0.6414840087890625	-2.687072509765625	0		1.2676773681640625	-0.87753369140625	0		2.845997314453125	-0.12482449340820312	0		4.49449560546875	0.19019644165039062	0		5.5960458984375	0.224423095703125	0		-0.2361729736328125	5.9519990234375	0		
-0.0010768740177154541	-9.072099924087525E-4	0		0.47471615600585937	-2.50623779296875	0		-1.2298336181640626	0.023725105285644532	0		-0.6725139770507812	-2.681489013671875	0		1.24962646484375	-0.8732472534179687	0		2.854279052734375	-0.10613066101074219	0		4.48748974609375	0.19622636413574218	0		5.60188916015625	0.249832763671875	0		-0.2362999267578125	5.95188623046875	0		
0.0028444240093231203	0.0018868559598922729	0		0.5035827026367188	-2.506005859375	0		-1.155042724609375	0.019925739288330076	0		-0.6567343139648437	-2.684962158203125	0		1.25463623046875	-0.8664783935546875	0		2.8488203125	-0.12013387298583984	0		4.49734228515625	0.19588009643554688	0		5.596529296875	0.29835919189453125	0		-0.22221556091308595	5.96145361328125	0		
0.0026993401050567625	0.0017720049619674683	0		0.5034381713867188	-2.50612060546875	0		-1.2301239013671874	0.023496442794799805	0		-0.6697181396484375	-2.67778662109375	0		1.2703074951171875	-0.87495068359375	0		2.862919189453125	-0.10956566619873047	0		4.49237841796875	0.20387661743164062	0		5.60808251953125	0.24734396362304686	0		-0.23658323669433592	5.95165625	0		
-0.0015102510452270508	-0.0012501670122146607	0		0.4904158630371094	-2.50094140625	0		-1.1553309326171874	0.01969540023803711	0		-0.637976318359375	-2.683619140625	0		1.2701661376953124	-0.8750609130859375	0		2.85164404296875	-0.115423828125	0		4.48392236328125	0.1899563751220703	0		5.59334326171875	0.2843059692382813	0		-0.23673863220214844	5.95154296875	0		
-0.0016498880386352538	-0.0013596220016479491	0		0.5000817260742187	-2.510271484375	0		-1.155470703125	0.0195811824798584	0		-0.6720288696289063	-2.6799677734375	0		1.2810947265625	-0.8724131469726563	0		2.842552001953125	-0.11331970977783203	0		4.49209423828125	0.20368206787109375	0		5.590279296875	0.27220452880859375	0		-0.23690283203125	5.9514326171875	0		
-0.0017843719720840455	-0.0014641549587249756	0		0.5020078125	-2.508418212890625	0		-1.1556053466796874	0.019469228744506836	0		-0.6572622680664062	-2.685412353515625	0		1.2547926025390626	-0.8799231567382813	0		2.85137109375	-0.1156076889038086	0		4.47678271484375	0.1959455261230469	0		5.60434912109375	0.2609300231933594	0		-0.22187713623046876	5.95998681640625	0		
0.008310224533081055	0.008210739135742188	0		0.46393475341796875	-2.506658203125	0		-1.222513916015625	0.02986368179321289	0		-0.6522322387695313	-2.6796298828125	0		1.2838453369140626	-0.872663330078125	0		2.87855224609375	-0.10229016876220703	0		4.49391845703125	0.2075027160644531	0		5.60425927734375	0.2608459777832031	0		-0.2210806427001953	5.95886474609375	0		
0.002035511016845703	0.0012573089599609375	0		0.5028573608398438	-2.506618896484375	0		-1.1558521728515625	0.019257606506347655	0		-0.6554093017578125	-2.6836591796875	0		1.26283154296875	-0.8682680053710937	0		2.85523828125	-0.11082825469970703	0		4.4917080078125	0.20351055908203125	0		5.59709228515625	0.2663777465820312	0		-0.22322308349609374	5.96081689453125	0		
0.0019258320331573485	0.0011758899688720703	0		0.4660169067382812	-2.495865478515625	0		-1.155962158203125	0.01915978240966797	0		-0.635396240234375	-2.68019970703125	0		1.2895479736328126	-0.8769353637695313	0		2.84617724609375	-0.10866781616210938	0		4.48775341796875	0.21058074951171876	0		5.58993212890625	0.2719487915039063	0		-0.23763804626464843	5.951048828125	0		
-0.002240794897079468	-0.0018065890073776245	0		0.49963577270507814	-2.510689453125	0		-1.1601290283203125	0.01615798568725586	0		-0.6575808715820313	-2.685788330078125	0		1.2464505615234376	-0.8770224609375	0		2.850920654296875	-0.11580362701416015	0		4.4863134765625	0.19560885620117188	0		5.59398046875	0.2544529724121094	0		-0.23783767700195313	5.9509716796875	0		
-0.002332066059112549	-0.001871301054954529	0		0.4497840576171875	-2.50162646484375	0		-1.2310908203125	0.022660430908203126	0		-0.65557666015625	-2.683910888671875	0		1.2694150390625	-0.8755791015625	0		2.859255126953125	-0.09699793243408203	0		4.4962158203125	0.1954056854248047	0		5.601	0.24894644165039062	0		-0.23804240417480468	5.95090283203125	0		
0.001651764988899231	9.819409847259522E-4	0		0.5026521911621094	-2.5068583984375	0		-1.2311737060546875	0.02257777404785156	0		-0.663331298828125	-2.67180517578125	0		1.2514677734375	-0.8702069091796875	0		2.8579736328125	-0.10596884155273438	0		4.48957861328125	0.21559664916992188	0		5.6039072265625	0.261004150390625	0		-0.23825148010253908	5.95084130859375	0		
0.0015784720182418824	9.339209794998168E-4	0		0.47566668701171877	-2.50529150390625	0		-1.1563109130859375	0.01882468032836914	0		-0.65456787109375	-2.682067626953125	0		1.269298583984375	-0.8756268920898438	0		2.8690341796875	-0.10019746398925782	0		4.4960517578125	0.19550212097167968	0		5.59677392578125	0.26671990966796877	0		-0.23846395874023438	5.95078759765625	0		
0.0015142710208892823	8.944129943847656E-4	0		0.4897518310546875	-2.501632568359375	0		-1.1563756103515626	0.018755828857421875	0		-0.6653603515625	-2.67288037109375	0		1.2482841796875	-0.87416552734375	0		2.85784130859375	-0.10591716003417968	0		4.49116259765625	0.20368617248535156	0		5.60084814453125	0.2493656005859375	0		-0.238678955078125	5.95074169921875	0		
-0.0026070029735565186	-0.0020466361045837402	0		0.4897643737792969	-2.501650390625	0		-1.160497314453125	0.01578335952758789	0		-0.6334849853515625	-2.6796416015625	0		1.286131591796875	-0.880009033203125	0		2.848835693359375	-0.10367043304443359	0		4.4911015625	0.20377699279785155	0		5.60081103515625	0.2495708465576172	0		-0.238895751953125	5.95070458984375	0		
-0.0026537480354309083	-0.002069279909133911	0		0.5104278564453125	-2.51812255859375	0		-1.2314156494140625	0.022307741165161134	0		-0.6746005249023438	-2.685767333984375	0		1.254095703125	-0.8802816162109375	0		2.847591552734375	-0.11258661651611328	0		4.49484765625	0.194796630859375	0		5.60374365234375	0.2617589111328125	0		-0.2239168243408203	5.95933837890625	0		
0.007527879238128662	0.007691749095916748	0		0.5068221130371093	-2.5020361328125	0		-1.148341796875	0.026408897399902344	0		-0.6375450439453125	-2.685625	0		1.2801885986328125	-0.8758374633789062	0		2.865930419921875	-0.09591954040527344	0		4.4930927734375	0.20795915222167968	0		5.60371826171875	0.2620220642089844	0		-0.22315701293945311	5.9582958984375	0		
